<svg width="48" height="48" viewBox="0 0 48 48" fill="none" xmlns="http://www.w3.org/2000/svg">
<g id="Group 126">
<path id="Union" fill-rule="evenodd" clip-rule="evenodd" d="M10.333 37.6659C10.777 38.1099 11.4968 38.1099 11.9408 37.6659L23.9991 25.6076L36.0581 37.6667C36.5021 38.1107 37.222 38.1107 37.666 37.6667C38.11 37.2227 38.11 36.5029 37.666 36.0589L25.6069 23.9998L37.6659 11.9408C38.1099 11.4968 38.1099 10.777 37.6659 10.333C37.2219 9.889 36.502 9.889 36.0581 10.333L23.9991 22.392L11.9409 10.3338C11.4969 9.88983 10.7771 9.88983 10.3331 10.3338C9.8891 10.7778 9.8891 11.4976 10.3331 11.9416L22.3913 23.9998L10.333 36.0581C9.889 36.502 9.889 37.2219 10.333 37.6659Z" fill="currentColor"/>
</g>
</svg>
